<svg xmlns="http://www.w3.org/2000/svg" xmlns:xlink="http://www.w3.org/1999/xlink" version="1.1" x="0px" y="0px" viewBox="0 0 100 125" enable-background="new 0 0 100 100" xml:space="preserve"><path d="M78.872,77.193c-0.044-0.028-0.089-0.048-0.139-0.062c-4.842-2.217-16.84-3.366-28.733-3.366  c-11.188,0-22.469,1.017-27.798,2.983c-0.001,0-0.002,0.001-0.003,0.001c-2,0.738-3.167,1.609-3.167,2.612  c0,3.673,15.579,5.595,30.968,5.595s30.968-1.922,30.968-5.595C80.968,78.553,80.212,77.829,78.872,77.193z M77.107,77.551  c-5.387,1.533-15.354,2.502-26.143,2.502c-11.542,0-22.043-1.107-27.089-2.8c4.812-1.34,13.92-2.498,26.125-2.498  C63.099,74.755,72.625,76.09,77.107,77.551z M67.849,82.99l-2.244-2.578c2.241-0.206,4.318-0.459,6.198-0.752l2.499,2.258  C72.53,82.313,70.37,82.679,67.849,82.99z M60.42,83.66l-1.395-2.803c1.852-0.086,3.643-0.201,5.358-0.342l2.276,2.614  C64.759,83.342,62.674,83.521,60.42,83.66z M57.944,80.904l1.403,2.818c-2.116,0.115-4.374,0.192-6.763,0.224l-0.565-2.91  C54.034,81.025,56.017,80.981,57.944,80.904z M35.569,83.355l2.439-2.804c1.903,0.151,3.896,0.272,5.962,0.354l-0.7,2.937  C40.479,83.738,37.908,83.569,35.569,83.355z M27.817,82.342l2.961-2.589c1.835,0.27,3.85,0.504,6.007,0.695l-2.427,2.789  C31.881,82.985,29.691,82.68,27.817,82.342z M20.022,79.361c0-0.51,0.808-1.072,2.331-1.625c1.614,0.698,4.078,1.314,7.147,1.82  l-2.917,2.55C22.343,81.247,20.022,80.227,20.022,79.361z M44.28,83.876l0.7-2.937c1.951,0.066,3.949,0.104,5.985,0.104  c0.016,0,0.031,0,0.047,0l0.566,2.916c-0.52,0.004-1.045,0.007-1.577,0.007C48.007,83.966,46.102,83.933,44.28,83.876z   M75.472,81.641l-2.42-2.186c2.223-0.387,4.107-0.834,5.541-1.331c0.906,0.424,1.384,0.846,1.384,1.237  C79.978,80.075,78.402,80.894,75.472,81.641z M99.735,23.165c0.001-0.028,0.008-0.055,0.008-0.083  c0-3.316-10.099-5.274-18.571-6.332l-0.001,0c-8.777-1.1-19.89-1.706-31.292-1.706c-11.306,0-22.332,0.598-31.048,1.681  C10.24,17.775,0,19.73,0,23.082v41.962c0,0.065,0.014,0.126,0.037,0.183c-0.019,0.099-0.03,0.197-0.03,0.294  c0,3.355,10.234,5.318,18.819,6.375c0.02,0.003,0.041,0.004,0.061,0.004c0.12,0,0.237-0.044,0.328-0.124  c0.106-0.095,0.167-0.229,0.167-0.371V60.101c4.063-0.489,8.496-0.874,13.18-1.147c0.089,0.364,0.178,0.729,0.269,1.1  c0.628,2.559,1.22,4.978,1.362,6.005c0.172,1.298,0.966,2.814,2.124,4.055c1.262,1.353,2.668,2.098,3.959,2.098  c2.75,0,4.986-2.236,4.984-4.943l0.603-6.907h8.271l0.601,6.863c0,2.75,2.236,4.986,4.986,4.986c1.292,0,2.698-0.745,3.96-2.098  c1.157-1.241,1.951-2.758,2.122-4.052c0.143-1.031,0.736-3.449,1.363-6.008c0.09-0.366,0.178-0.727,0.266-1.087  c4.76,0.277,9.186,0.668,13.179,1.161v11.25c0,0.142,0.061,0.278,0.167,0.371c0.091,0.08,0.208,0.124,0.328,0.124  c0.02,0,0.041-0.001,0.061-0.004c8.473-1.058,18.573-3.018,18.573-6.344c0-0.018-0.004-0.035-0.005-0.052  c0.154-0.084,0.262-0.241,0.262-0.429V23.596C100,23.407,99.891,23.248,99.735,23.165z M81.604,59.248V29.37  c7.014-0.896,14.99-2.407,17.406-4.793v39.458C96.596,61.655,88.619,60.144,81.604,59.248z M18.391,70.843  C5.566,69.218,0.997,66.968,0.997,65.521c0-0.089,0.02-0.18,0.063-0.293c0.291-0.705,2.404-3.128,17.332-5.006V70.843z M0.99,63.795  V24.81c2.711,2.268,10.515,3.716,17.401,4.585v29.829C11.626,60.07,3.712,61.511,0.99,63.795z M64.824,65.93  c-0.143,1.084-0.859,2.429-1.865,3.51c-1.058,1.133-2.236,1.783-3.236,1.783c-2.204,0-3.996-1.793-3.998-4.04l-0.643-7.358  c-0.022-0.255-0.237-0.452-0.493-0.452h-9.178c-0.256,0-0.471,0.196-0.493,0.452l-0.645,7.402c0,2.204-1.793,3.996-3.996,3.996  c-1,0-2.178-0.65-3.235-1.783c-1.007-1.081-1.723-2.426-1.867-3.513c-0.15-1.082-0.748-3.523-1.383-6.109  c-0.785-3.205-1.676-6.837-1.676-7.787c0-1.967,0.765-3.809,2.156-5.188c1.379-1.389,3.221-2.154,5.186-2.154h21.082  c1.966,0,3.808,0.765,5.188,2.157c1.389,1.377,2.154,3.219,2.154,5.185c0,0.95-0.891,4.582-1.676,7.787  C65.574,62.403,64.975,64.845,64.824,65.93z M51.657,42.772c0.588,0,1.07,0.393,1.24,0.925h-5.795  c0.17-0.532,0.652-0.925,1.24-0.925H51.657z M68.874,52.03c0-2.233-0.869-4.324-2.444-5.886c-1.565-1.577-3.657-2.446-5.888-2.446  h-6.614c-0.189-1.085-1.132-1.915-2.27-1.915h-1.434c-0.326-1.043-2.181-7.926,4.098-12.41c2.263-1.617,3.759-3.332,4.45-5.098  c0.1-0.254-0.026-0.541-0.281-0.641c-0.253-0.099-0.541,0.025-0.641,0.281c-0.619,1.584-2,3.149-4.103,4.652  c-6.302,4.501-5.021,11.396-4.546,13.216h-0.856c-1.138,0-2.081,0.83-2.27,1.915h-6.614c-2.232,0-4.323,0.869-5.886,2.443  c-1.577,1.565-2.446,3.657-2.446,5.889c0,0.858,0.535,3.208,1.198,5.947c-4.593,0.271-8.945,0.648-12.943,1.126v-30.08  c0-0.001,0.001-0.002,0.001-0.003c0.001-0.004-0.001-0.008-0.001-0.013v-0.042c0-0.009-0.005-0.017-0.005-0.026  c-0.002-0.058-0.012-0.112-0.033-0.163c-0.002-0.004-0.004-0.008-0.006-0.012c-0.025-0.056-0.057-0.105-0.1-0.148  c-0.001-0.001-0.002-0.002-0.004-0.003c-0.043-0.043-0.093-0.077-0.15-0.101c-0.005-0.002-0.01-0.003-0.015-0.005  c-0.038-0.015-0.074-0.033-0.116-0.039C5.694,26.832,0.99,24.545,0.99,23.082c0-1.466,4.704-3.753,17.962-5.374  c8.678-1.079,19.661-1.674,30.927-1.674c11.362,0,22.431,0.603,31.168,1.698c0,0,0.001,0,0.001,0l0,0  c13.068,1.632,17.705,3.902,17.705,5.35c0,1.453-4.637,3.729-17.705,5.361c-0.015,0.002-0.027,0.011-0.041,0.014  c-0.045,0.01-0.087,0.021-0.126,0.042c-0.019,0.01-0.035,0.023-0.052,0.035c-0.034,0.024-0.065,0.049-0.092,0.08  c-0.016,0.019-0.027,0.039-0.041,0.06c-0.02,0.032-0.038,0.063-0.05,0.099c-0.01,0.029-0.013,0.059-0.018,0.089  c-0.003,0.023-0.014,0.044-0.014,0.069v30.2c-3.931-0.482-8.276-0.866-12.941-1.141C68.337,55.245,68.874,52.89,68.874,52.03z   M81.604,70.816v-10.57c12.643,1.626,17.149,3.852,17.149,5.279C98.753,66.957,94.247,69.19,81.604,70.816z M40.451,47.104  c-3.072,0-5.571,2.499-5.571,5.571c0,3.072,2.499,5.57,5.571,5.57c3.072,0,5.57-2.498,5.57-5.57  C46.021,49.604,43.523,47.104,40.451,47.104z M40.451,57.256c-2.526,0-4.581-2.055-4.581-4.58c0-2.526,2.055-4.581,4.581-4.581  c2.526,0,4.58,2.055,4.58,4.581C45.031,55.201,42.976,57.256,40.451,57.256z M52.334,56.138c0,0.274-0.221,0.495-0.495,0.495h-3.678  c-0.274,0-0.495-0.221-0.495-0.495s0.221-0.495,0.495-0.495h3.678C52.113,55.643,52.334,55.864,52.334,56.138z M43.735,52.642  c0,0.274-0.221,0.495-0.495,0.495h-2.227v2.227c0,0.274-0.221,0.495-0.495,0.495c-0.274,0-0.495-0.221-0.495-0.495v-2.227h-2.227  c-0.274,0-0.495-0.221-0.495-0.495c0-0.274,0.221-0.495,0.495-0.495h2.227v-2.228c0-0.274,0.221-0.495,0.495-0.495  c0.274,0,0.495,0.221,0.495,0.495v2.228h2.227C43.513,52.147,43.735,52.368,43.735,52.642z M59.528,51.411  c0.977,0,1.77-0.794,1.77-1.77s-0.794-1.77-1.77-1.77s-1.771,0.794-1.771,1.77S58.551,51.411,59.528,51.411z M59.528,48.86  c0.43,0,0.78,0.35,0.78,0.78s-0.35,0.78-0.78,0.78c-0.431,0-0.781-0.35-0.781-0.78S59.097,48.86,59.528,48.86z M59.528,53.761  c-0.977,0-1.771,0.795-1.771,1.771s0.795,1.77,1.771,1.77s1.77-0.794,1.77-1.77S60.504,53.761,59.528,53.761z M59.528,56.313  c-0.431,0-0.781-0.35-0.781-0.78c0-0.431,0.35-0.781,0.781-0.781c0.43,0,0.78,0.35,0.78,0.781  C60.308,55.963,59.958,56.313,59.528,56.313z M62.474,50.815c-0.977,0-1.771,0.795-1.771,1.771s0.795,1.77,1.771,1.77  s1.77-0.794,1.77-1.77S63.45,50.815,62.474,50.815z M62.474,53.367c-0.431,0-0.781-0.35-0.781-0.78c0-0.431,0.35-0.781,0.781-0.781  c0.43,0,0.78,0.35,0.78,0.781C63.254,53.017,62.904,53.367,62.474,53.367z M58.352,52.586c0-0.977-0.794-1.771-1.77-1.771  s-1.77,0.795-1.77,1.771s0.794,1.77,1.77,1.77S58.352,53.563,58.352,52.586z M56.582,53.367c-0.43,0-0.78-0.35-0.78-0.78  c0-0.431,0.35-0.781,0.78-0.781s0.78,0.35,0.78,0.781C57.362,53.017,57.012,53.367,56.582,53.367z M82.784,23.794  c0.047-0.27,0.308-0.448,0.571-0.405c1.841,0.314,3.706,0.661,5.544,1.031c0.268,0.054,0.442,0.315,0.388,0.583  c-0.047,0.235-0.254,0.397-0.484,0.397c-0.033,0-0.066-0.003-0.099-0.01c-1.828-0.367-3.685-0.713-5.515-1.025  C82.92,24.319,82.739,24.064,82.784,23.794z M65.153,22.117c-8.303-0.665-16.799-0.858-25.263-0.565  c-0.287-0.016-0.503-0.205-0.512-0.478c-0.009-0.274,0.205-0.503,0.478-0.512c8.501-0.294,17.037-0.102,25.377,0.569  c3.419,0.275,6.842,0.633,10.172,1.066c0.271,0.036,0.462,0.284,0.427,0.555c-0.033,0.249-0.246,0.431-0.49,0.431  c-0.021,0-0.044-0.001-0.065-0.004C71.962,22.747,68.557,22.39,65.153,22.117z M31.252,22.017  c-12.193,0.896-19.875,2.512-19.951,2.528c-0.035,0.007-0.07,0.011-0.103,0.011c-0.229,0-0.435-0.16-0.484-0.392  c-0.057-0.268,0.114-0.531,0.381-0.588c0.077-0.016,7.818-1.646,20.084-2.548c0.268-0.024,0.511,0.185,0.531,0.457  C31.729,21.759,31.525,21.997,31.252,22.017z M77.258,30.563c-0.045,0.237-0.252,0.402-0.485,0.402  c-0.031,0-0.062-0.003-0.094-0.009c-4.108-0.783-8.343-1.336-12.585-1.645c-0.273-0.02-0.478-0.257-0.458-0.53  c0.02-0.274,0.263-0.479,0.53-0.458c4.28,0.311,8.553,0.87,12.699,1.66C77.133,30.035,77.309,30.294,77.258,30.563z M44.379,28.578  c-0.008,0.273-0.234,0.488-0.51,0.481c-8.773-0.255-16.151,0.573-20.795,1.312c-0.026,0.004-0.052,0.006-0.078,0.006  c-0.239,0-0.45-0.174-0.488-0.418c-0.043-0.27,0.141-0.523,0.412-0.567c4.685-0.745,12.126-1.578,20.979-1.324  C44.172,28.076,44.387,28.304,44.379,28.578z"/><text x="0" y="115" fill="#000000" font-size="5px" font-weight="bold" font-family="'Helvetica Neue', Helvetica, Arial-Unicode, Arial, Sans-serif">Created by rdesign</text><text x="0" y="120" fill="#000000" font-size="5px" font-weight="bold" font-family="'Helvetica Neue', Helvetica, Arial-Unicode, Arial, Sans-serif">from the Noun Project</text></svg>