<?xml version="1.0" encoding="utf-8"?>
<svg xmlns="http://www.w3.org/2000/svg" version="1.1" viewBox="-5.0 -10.0 110.0 135.0">
  <path d="M 15.509 47.26 C 15.364 47.207 15.202 47.286 15.154 47.43 C 13.394 52.391 13.806 56.445 13.153 61.629 C 13.026 62.628 13.714 63.556 14.686 63.696 C 14.738 63.705 15.57 63.827 15.618 63.827 C 15.754 63.827 15.877 63.727 15.894 63.587 C 15.916 63.433 15.807 63.293 15.658 63.271 C 15.369 63.232 15.075 63.188 14.769 63.144 C 14.095 63.048 13.618 62.4 13.709 61.699 C 14.362 56.524 13.955 52.474 15.68 47.615 C 15.732 47.47 15.658 47.313 15.509 47.26 Z" style="fill: rgb(246, 247, 251);"/>
  <path d="M 26.565 37.649 C 26.508 37.505 26.351 37.435 26.206 37.487 C 26.062 37.544 25.992 37.702 26.044 37.846 C 26.237 38.354 26.508 38.578 26.889 38.814 C 27.02 38.897 27.191 38.858 27.274 38.726 C 27.358 38.595 27.318 38.424 27.187 38.341 C 26.898 38.166 26.71 38.035 26.565 37.649 Z" style="fill: rgb(246, 247, 251);"/>
  <path d="M 30.02 35.438 C 29.866 35.407 29.722 35.508 29.691 35.657 C 29.577 36.239 30.212 36.694 30.037 36.9 C 29.906 36.865 29.766 36.927 29.709 37.054 C 29.569 37.364 29.98 37.596 30.317 37.386 C 30.497 37.272 30.615 37.067 30.624 36.852 C 30.637 36.362 30.19 36.02 30.239 35.766 C 30.269 35.617 30.168 35.469 30.02 35.438 Z" style="fill: rgb(246, 247, 251);"/>
  <path d="M 29.209 37.737 C 29.122 37.61 28.947 37.579 28.82 37.667 C 28.693 37.754 28.662 37.929 28.749 38.056 C 28.973 38.372 29.376 38.542 29.761 38.472 C 29.914 38.446 30.01 38.297 29.984 38.148 C 29.958 37.995 29.809 37.899 29.66 37.925 C 29.498 37.956 29.306 37.877 29.209 37.737 Z" style="fill: rgb(246, 247, 251);"/>
  <path d="M 49.849 49.331 C 50.076 49.038 50.33 48.744 50.396 48.385 C 50.449 48.083 50.33 47.737 50.05 47.571 C 50.041 47.378 49.963 47.181 49.884 47.067 C 49.805 46.949 49.547 46.721 49.288 46.634 C 49.144 46.323 48.802 46.178 48.465 46.122 C 48.903 45.364 49.35 44.572 49.73 43.784 C 49.822 43.595 49.906 43.407 49.923 43.193 C 49.976 42.514 49.288 42.168 48.688 42.575 C 48.386 42.777 48.487 42.693 45.983 46.345 C 45.518 46.481 45.173 46.848 44.857 47.216 C 44.643 47.466 44.45 47.834 44.271 48.206 C 44.222 48.144 44.174 48.083 44.117 48.013 C 44.004 47.869 43.785 47.877 43.675 48.022 C 42.405 49.738 42.029 50.579 40.904 51.59 C 40.807 50.224 40.781 48.801 40.663 47.181 C 40.61 46.428 40.321 45.605 38.605 44.712 C 38.053 44.427 37.44 44.121 36.674 43.753 C 36.534 43.687 36.368 43.744 36.302 43.884 C 36.236 44.024 36.293 44.191 36.433 44.256 C 37.195 44.624 37.804 44.926 38.347 45.211 C 39.897 46.017 40.067 46.647 40.107 47.225 C 40.234 48.95 40.26 50.583 40.383 52.033 C 40.12 52.238 39.822 52.457 39.476 52.698 C 39.349 52.786 39.319 52.961 39.406 53.088 C 39.494 53.215 39.664 53.245 39.796 53.158 C 42.182 51.511 42.445 50.684 43.912 48.652 C 44.805 49.817 44.914 50.045 46.644 51.512 C 46.933 51.757 47.23 52.006 47.506 52.26 C 46.797 53.517 45.659 55.435 45.146 56.166 C 45.015 56.354 45.151 56.604 45.374 56.604 C 45.461 56.604 45.549 56.564 45.602 56.485 C 46.153 55.697 47.44 53.513 48.102 52.33 C 48.189 52.177 48.11 51.98 47.944 51.928 C 47.905 51.862 47.913 51.879 47.835 51.809 C 47.839 51.805 47.848 51.796 47.852 51.792 C 48.745 50.759 48.982 50.456 49.848 49.331 L 49.849 49.331 Z M 49.424 47.378 C 49.446 47.413 49.463 47.461 49.477 47.505 C 49.336 47.545 49.196 47.619 49.069 47.724 C 48.671 48.052 48.544 48.162 48.308 48.451 C 48.294 48.464 48.277 48.481 48.268 48.499 C 48.181 48.626 47.927 48.762 47.795 48.67 C 47.765 48.591 47.865 48.302 48.01 48.153 C 48.137 48.039 48.829 47.418 49.118 47.159 C 49.201 47.194 49.38 47.317 49.424 47.378 Z M 48.702 46.787 C 48.618 46.866 48.505 46.962 48.386 47.067 C 48.316 46.918 48.202 46.787 48.04 46.678 C 48.255 46.625 48.557 46.695 48.702 46.787 Z M 48.999 43.039 C 49.118 42.96 49.249 42.947 49.306 42.982 C 49.354 43.009 49.371 43.092 49.367 43.153 C 49.336 43.534 47.922 45.946 47.734 46.27 C 47.686 46.354 47.686 46.445 47.721 46.52 C 47.489 46.437 47.012 46.327 46.696 46.292 C 48.894 43.087 48.815 43.166 48.999 43.039 Z M 44.656 48.714 C 44.695 48.665 44.726 48.604 44.739 48.521 C 44.906 48.171 45.094 47.794 45.282 47.58 C 45.943 46.809 46.21 46.721 47.169 46.945 C 47.379 46.993 47.594 47.045 47.747 47.146 C 47.843 47.212 47.935 47.33 47.909 47.435 C 47.87 47.606 47.576 47.737 47.314 47.763 C 47.09 47.785 46.561 47.658 46.272 47.816 C 45.851 48.03 45.886 48.911 46.197 49.178 C 46.315 49.278 46.495 49.269 46.596 49.156 C 46.696 49.037 46.688 48.867 46.574 48.77 C 46.517 48.692 46.504 48.411 46.547 48.311 C 46.692 48.271 47.051 48.328 47.292 48.324 C 47.204 48.6 47.209 48.889 47.401 49.068 C 47.572 49.23 47.786 49.283 48.005 49.261 C 48.106 49.795 48.837 49.861 49.056 49.449 C 49.131 49.313 49.078 49.143 48.942 49.072 C 48.815 49.007 48.662 49.046 48.579 49.16 C 48.566 49.16 48.553 49.16 48.553 49.164 C 48.54 49.143 48.553 49.051 48.632 48.95 C 48.969 48.521 49.021 48.503 49.428 48.157 C 49.533 48.07 49.66 48.022 49.739 48.039 C 49.827 48.061 49.871 48.188 49.853 48.289 C 49.814 48.503 49.608 48.744 49.415 48.994 C 47.537 51.424 47.695 51.078 47.423 51.446 C 47.279 51.323 45.51 49.856 44.656 48.713 L 44.656 48.714 Z" style="fill: rgb(246, 247, 251);"/>
  <path d="M 39.083 103.329 C 38.93 103.329 38.807 103.456 38.807 103.61 C 38.807 103.763 38.934 103.885 39.087 103.885 L 39.092 103.885 L 40.077 103.872 C 40.23 103.872 40.353 103.745 40.353 103.592 C 40.353 103.439 40.23 103.321 40.072 103.316 L 39.083 103.329 Z" style="fill: rgb(246, 247, 251);"/>
  <path d="M 20.601 102.769 C 20.754 102.769 20.881 102.646 20.881 102.493 C 20.881 102.34 20.759 102.213 20.605 102.213 C 20.649 102.213 19.852 102.209 19.791 102.209 C 19.638 102.209 19.511 102.331 19.511 102.484 C 19.511 102.638 19.633 102.765 19.787 102.765 C 19.743 102.769 20.54 102.769 20.601 102.769 Z" style="fill: rgb(246, 247, 251);"/>
  <path d="M 23.775 50.163 C 24.187 49.856 24.222 49.283 24.042 48.871 C 23.872 48.486 23.548 48.206 23.289 47.982 C 23.171 47.882 22.996 47.895 22.895 48.013 C 22.795 48.131 22.808 48.306 22.926 48.407 C 23.154 48.604 23.416 48.827 23.534 49.094 C 23.622 49.296 23.613 49.593 23.447 49.716 C 23.307 49.821 22.948 49.931 22.891 50.285 C 22.843 50.596 23.053 50.789 23.267 50.986 C 23.596 51.297 23.618 51.892 23.32 52.234 C 23.219 52.347 23.228 52.527 23.346 52.628 C 23.464 52.728 23.64 52.72 23.74 52.601 C 24.231 52.041 24.191 51.1 23.653 50.583 C 23.635 50.565 23.456 50.399 23.438 50.382 C 23.456 50.355 23.543 50.307 23.591 50.276 C 23.653 50.241 23.718 50.206 23.775 50.163 Z" style="fill: rgb(246, 247, 251);"/>
  <path d="M 39.091 49.396 C 39.235 49.348 39.318 49.19 39.27 49.046 C 38.955 48.069 38.425 47.154 37.738 46.392 C 37.633 46.279 37.458 46.27 37.344 46.37 C 37.23 46.476 37.221 46.651 37.322 46.765 C 37.957 47.465 38.447 48.314 38.736 49.216 C 38.789 49.365 38.946 49.444 39.091 49.396 Z" style="fill: rgb(246, 247, 251);"/>
  <path d="M 37.126 48.105 C 37.003 48.197 36.981 48.372 37.073 48.494 C 37.192 48.648 37.257 48.836 37.266 49.029 C 37.275 49.177 37.397 49.3 37.559 49.296 C 37.713 49.287 37.831 49.16 37.826 49.002 C 37.813 48.7 37.704 48.398 37.52 48.157 C 37.419 48.035 37.244 48.008 37.126 48.105 Z" style="fill: rgb(246, 247, 251);"/>
  <path d="M 36.736 60.526 C 36.587 60.487 36.434 60.574 36.394 60.723 L 35.956 62.352 C 35.917 62.501 36.005 62.654 36.153 62.693 C 36.302 62.733 36.456 62.645 36.495 62.496 L 36.933 60.868 C 36.977 60.719 36.885 60.565 36.736 60.526 Z" style="fill: rgb(246, 247, 251);"/>
  <path d="M 37.23 58.574 C 37.077 58.574 36.95 58.696 36.95 58.854 C 36.95 59.007 37.077 59.134 37.23 59.134 L 37.291 59.134 C 37.445 59.134 37.572 59.011 37.572 58.854 C 37.572 58.7 37.445 58.574 37.291 58.574 L 37.23 58.574 Z" style="fill: rgb(246, 247, 251);"/>
  <path d="M 14.774 54.843 L 14.774 55.658 C 14.774 55.811 14.901 55.938 15.054 55.938 C 15.207 55.938 15.334 55.815 15.334 55.658 L 15.334 54.843 C 15.334 54.69 15.207 54.563 15.054 54.563 C 14.896 54.563 14.774 54.686 14.774 54.843 Z" style="fill: rgb(246, 247, 251);"/>
  <path d="M 16.205 55.425 L 16.266 54.549 C 16.279 54.396 16.161 54.265 16.008 54.252 C 15.859 54.243 15.723 54.357 15.71 54.51 L 15.649 55.386 C 15.64 55.539 15.754 55.67 15.907 55.683 C 16.056 55.696 16.192 55.583 16.205 55.425 Z" style="fill: rgb(246, 247, 251);"/>
  <path d="M 22.918 64.384 C 22.852 64.244 22.686 64.187 22.546 64.253 C 22.406 64.318 22.349 64.485 22.414 64.625 C 22.498 64.804 22.427 65.054 22.265 65.159 C 22.13 65.247 22.095 65.435 22.195 65.562 C 22.371 65.785 22.397 66.118 22.265 66.367 C 22.195 66.503 22.248 66.674 22.384 66.744 C 22.524 66.814 22.69 66.761 22.76 66.626 C 22.953 66.258 22.948 65.811 22.773 65.444 C 23.01 65.155 23.08 64.726 22.918 64.384 Z" style="fill: rgb(246, 247, 251);"/>
  <path d="M 29.687 67.081 C 29.84 67.059 29.945 66.919 29.923 66.766 C 29.901 66.612 29.761 66.507 29.608 66.529 C 29.021 66.608 28.413 66.555 27.852 66.367 C 27.703 66.319 27.55 66.398 27.502 66.542 C 27.454 66.687 27.533 66.844 27.677 66.893 C 28.321 67.107 29.017 67.173 29.687 67.081 Z" style="fill: rgb(246, 247, 251);"/>
  <path d="M 52.756 105.229 L 42.463 105.229 C 42.388 104.529 42.231 103.495 42.051 103.075 C 41.99 102.935 41.828 102.865 41.688 102.926 C 41.548 102.988 41.478 103.15 41.539 103.29 C 41.675 103.614 41.823 104.529 41.902 105.225 L 34.437 105.225 C 34.42 104.073 34.512 102.589 34.468 101.42 C 35.317 101.354 36.385 101.263 37.397 101.157 C 37.397 101.306 37.41 101.429 37.428 101.503 C 37.476 101.766 37.563 101.871 37.625 102.09 C 37.66 102.221 37.791 102.309 37.931 102.291 C 38.973 102.164 40.12 102.055 41.018 102.615 C 41.149 102.699 41.32 102.655 41.403 102.528 C 41.486 102.396 41.443 102.226 41.316 102.143 C 40.352 101.543 39.21 101.582 38.089 101.713 C 38.006 101.503 37.953 101.416 37.962 101.092 C 38.667 101.009 39.315 100.921 39.809 100.825 C 39.77 98.688 39.621 95.952 39.402 92.935 C 39.345 92.965 38.671 93.189 38.067 93.395 C 37.97 93.425 37.865 93.377 37.83 93.276 C 37.8 93.18 37.848 93.075 37.949 93.04 C 39.293 92.602 39.258 92.558 39.376 92.598 C 38.754 84.257 37.581 73.893 36.469 68.053 C 36.495 68.005 36.512 67.952 36.508 67.891 C 36.486 67.519 36.517 67.064 36.517 66.53 C 36.596 66.543 37.502 66.67 37.581 66.67 C 37.716 66.67 37.835 66.573 37.857 66.438 C 38.137 64.726 38.513 63.079 38.82 61.81 C 39.117 61.748 39.38 61.691 39.555 61.656 C 40.856 61.381 42.305 60.536 43.246 59.507 C 43.754 58.951 44.249 58.355 44.717 57.733 C 44.809 57.611 44.783 57.436 44.661 57.344 C 44.538 57.252 44.363 57.278 44.271 57.401 C 43.815 58.009 43.329 58.592 42.835 59.135 C 41.272 60.846 39.275 61.144 39.236 61.162 C 39.052 61.201 38.877 61.236 38.706 61.271 C 38.553 61.21 38.369 61.276 38.321 61.49 C 38.268 61.648 37.677 64.126 37.344 66.087 C 34.188 65.698 31.031 64.91 27.957 64.082 C 28.032 63.692 28.11 63.303 28.189 62.917 C 28.22 62.769 28.124 62.62 27.975 62.589 C 27.826 62.558 27.677 62.655 27.646 62.804 C 27.55 63.276 27.454 63.754 27.362 64.231 C 27.335 64.375 27.423 64.515 27.563 64.555 C 30.348 65.308 33.115 66.013 35.952 66.455 C 35.956 66.84 35.913 67.764 35.952 67.966 C 34.227 68.206 32.546 68.246 30.79 68.303 L 26.232 68.023 C 23.522 67.926 21.814 68.211 19.818 67.917 C 19.888 66.648 19.735 65.277 19.743 64.038 C 20.234 63.994 20.728 63.924 21.25 63.811 C 26.845 62.598 25.387 62.839 27.182 62.423 C 27.554 62.335 27.835 62.055 27.935 61.7 C 29.266 61.451 32.721 61.302 32.576 59.857 C 32.791 59.778 33.023 59.577 33.106 59.393 C 33.176 59.231 33.137 59.056 33.036 58.902 C 33.61 58.719 33.667 58.206 33.286 57.895 C 33.487 57.751 33.566 57.51 33.474 57.304 C 33.343 57.007 32.957 56.954 32.813 56.932 C 31.911 56.801 30.65 56.748 29.612 56.797 C 29.906 55.654 30.295 54.2 30.672 52.878 C 31.385 52.93 31.99 53.018 32.664 53.141 C 32.624 53.355 32.594 53.565 32.568 53.767 C 32.546 53.924 32.659 54.064 32.817 54.082 C 34.726 54.27 36.784 54.883 36.968 54.883 C 37.077 54.883 37.182 54.817 37.226 54.712 C 37.305 54.52 37.371 54.327 37.432 54.121 C 38.281 54.428 39.069 54.787 39.906 55.071 C 39.533 56.726 39.117 58.346 38.662 60.146 C 38.623 60.295 38.715 60.448 38.864 60.483 C 39.012 60.522 39.166 60.43 39.201 60.282 C 39.406 59.476 40.335 55.803 40.488 55.01 C 40.567 54.848 40.479 54.669 40.321 54.62 C 39.446 54.349 38.491 53.902 37.576 53.578 C 37.664 53.241 37.708 53.053 37.765 52.856 C 37.804 52.711 37.725 52.567 37.585 52.519 C 37.23 52.401 36.871 52.317 36.512 52.225 C 36.552 51.753 36.245 51.218 35.759 51.118 C 35.273 51.013 34.748 51.389 34.573 51.84 C 34.148 51.774 33.745 51.726 33.316 51.652 C 33.18 51.63 33.049 51.704 33.005 51.836 C 32.913 52.103 32.839 52.357 32.778 52.606 C 32.007 52.466 31.333 52.37 30.483 52.317 C 30.448 52.313 30.413 52.322 30.378 52.335 C 30.102 50.041 29.406 46.84 28.977 44.975 C 29.104 44.686 29.231 44.336 29.323 44.099 C 29.047 43.626 28.763 43.324 28.382 42.97 C 29.341 42.751 30.089 42.151 30.466 41.297 C 31.906 42.125 33.579 42.921 35.063 43.631 C 35.203 43.696 35.37 43.639 35.435 43.499 C 35.501 43.359 35.444 43.193 35.304 43.127 C 33.732 42.379 31.95 41.533 30.475 40.658 C 30.334 40.575 30.146 40.627 30.076 40.789 C 30.059 40.811 30.045 40.833 30.037 40.864 C 29.384 42.825 26.438 43.105 25.422 41.306 C 25.409 41.096 25.186 40.982 25.01 41.078 L 17.265 45.413 C 17.064 45.535 16.617 45.89 16.205 46.253 C 16.013 46.424 16.14 46.739 16.389 46.739 C 16.455 46.739 16.521 46.718 16.573 46.669 C 16.989 46.297 17.396 45.982 17.536 45.894 L 25.01 41.713 C 25.474 42.444 26.249 42.93 27.173 43.04 C 26.959 43.477 26.74 43.854 26.517 44.336 C 26.665 44.524 26.823 44.743 27.003 44.975 C 26.753 47.256 26.258 50.08 25.667 52.567 C 25.65 52.641 25.663 52.72 25.702 52.781 C 26.232 53.609 27.296 54.533 27.874 55.268 C 27.979 55.4 28.176 55.408 28.29 55.29 C 28.798 54.778 29.468 54.016 29.971 53.298 C 29.8 53.902 29.634 54.511 29.476 55.111 C 28.688 55.387 27.791 55.842 27.055 56.21 C 26.924 56.03 26.749 56.061 26.521 56.048 C 26.337 56.039 26.14 56.083 25.965 56.122 C 25.015 56.341 22.173 56.472 20.426 56.748 C 20.242 56.779 20.076 56.604 20.124 56.416 C 20.597 54.616 20.61 52.992 20.978 51.087 C 21.009 50.934 20.908 50.789 20.759 50.759 C 20.606 50.728 20.461 50.829 20.431 50.978 C 20.045 52.965 20.054 54.476 19.581 56.271 C 19.52 56.499 19.564 56.735 19.691 56.932 C 19.634 56.959 19.581 57.007 19.555 57.068 C 19.266 57.698 18.832 58.272 18.311 58.727 C 18.119 58.898 18.237 59.218 18.495 59.218 C 18.561 59.218 18.627 59.196 18.679 59.148 C 19.262 58.64 19.743 58.001 20.067 57.3 C 20.076 57.283 20.08 57.265 20.085 57.248 C 20.22 57.3 20.369 57.322 20.514 57.296 C 21.42 57.151 22.357 57.072 23.263 56.994 C 26.775 56.687 25.952 56.595 26.648 56.608 C 26.91 57.164 26.928 57.226 27.129 58.211 C 27.313 59.086 27.431 60.418 27.418 61.442 C 27.414 61.661 27.265 61.849 27.051 61.897 C 26.525 62.02 25.995 62.164 25.479 62.3 C 24.647 62.515 23.513 62.769 21.127 63.285 C 19.428 63.653 18.009 63.574 16.735 63.43 C 16.582 63.412 16.446 63.522 16.429 63.675 C 16.411 63.828 16.521 63.964 16.674 63.981 C 17.554 64.078 18.368 64.126 19.183 64.091 C 19.178 65.409 19.349 66.88 19.244 68.154 C 19.24 68.224 19.262 68.29 19.297 68.342 C 18.141 78.246 19.091 92.459 17.716 101.775 C 17.93 101.802 18.145 101.819 18.355 101.837 C 18.342 101.999 18.329 102.161 18.311 102.344 C 18.298 102.498 18.412 102.633 18.57 102.642 C 18.723 102.655 18.859 102.537 18.867 102.384 C 18.881 102.2 18.898 102.034 18.911 101.872 C 20.203 101.942 21.376 101.889 22.449 101.797 C 22.458 102.016 22.462 102.235 22.462 102.476 C 22.462 102.616 22.563 102.747 22.742 102.756 C 23.46 102.752 24.156 102.778 24.739 103.106 C 25.163 103.347 25.676 104.437 25.776 105.247 L 18.762 105.247 C 18.775 104.604 18.789 103.654 18.81 103.26 C 18.819 103.106 18.701 102.975 18.548 102.966 C 18.394 102.958 18.263 103.076 18.254 103.229 C 18.228 103.636 18.215 104.599 18.202 105.252 L 13.022 105.252 C 12.869 105.252 12.742 105.374 12.742 105.532 C 12.742 105.685 12.869 105.812 13.022 105.812 L 52.751 105.812 C 52.904 105.812 53.031 105.69 53.031 105.532 C 53.036 105.357 52.913 105.23 52.755 105.23 L 52.756 105.229 Z M 34.117 52.715 C 34.144 52.614 34.249 52.557 34.345 52.583 L 35.746 52.964 C 35.956 53.021 35.913 53.328 35.698 53.328 C 35.65 53.328 35.72 53.337 34.249 52.938 C 34.148 52.912 34.091 52.811 34.117 52.715 Z M 27.506 45.512 C 27.817 45.744 28.233 45.758 28.544 45.556 C 28.631 45.95 28.732 46.388 28.828 46.852 C 28.82 46.856 28.807 46.856 28.798 46.861 C 28.36 47.058 27.743 47.316 27.222 47.539 C 27.331 46.843 27.427 46.16 27.506 45.512 Z M 27.112 48.201 C 27.668 47.951 28.395 47.653 28.942 47.408 C 29.065 47.995 29.187 48.608 29.306 49.225 C 29.275 49.23 29.244 49.234 29.218 49.247 C 28.487 49.589 27.559 49.956 26.722 50.32 C 26.867 49.615 26.998 48.901 27.112 48.201 Z M 26.587 50.994 C 27.467 50.591 28.535 50.175 29.411 49.773 C 29.516 50.355 29.617 50.928 29.695 51.476 C 29.643 51.471 29.59 51.48 29.542 51.502 C 28.544 51.997 27.515 52.456 26.477 52.864 C 26.39 52.758 26.311 52.653 26.241 52.553 C 26.363 52.045 26.477 51.519 26.587 50.994 Z M 28.115 54.654 C 27.76 54.243 27.283 53.77 26.863 53.31 C 27.848 52.916 28.824 52.478 29.774 52.01 C 29.796 52.167 29.814 52.321 29.831 52.469 C 29.424 53.174 28.702 54.037 28.115 54.654 Z M 27.305 56.686 C 27.935 56.371 28.636 56.016 29.301 55.749 C 29.196 56.143 29.091 56.546 28.982 56.975 C 28.894 57.168 29.043 57.369 29.24 57.369 L 29.249 57.369 L 29.253 57.369 C 30.54 57.273 32.187 57.373 32.8 57.492 C 32.156 57.605 30.917 57.614 30.479 57.662 C 30.326 57.68 30.216 57.816 30.234 57.969 C 30.251 58.122 30.387 58.231 30.54 58.214 C 30.799 58.183 31.902 58.148 32.222 58.118 C 32.375 58.118 32.646 58.192 32.835 58.267 C 32.883 58.284 32.922 58.31 32.944 58.332 C 32.568 58.534 30.65 58.529 30.23 58.507 C 30.072 58.499 29.945 58.617 29.936 58.77 C 29.927 58.923 30.046 59.055 30.199 59.063 C 30.637 59.085 31.832 59.072 32.327 59.02 C 32.414 59.046 32.519 59.133 32.559 59.195 C 32.511 59.247 32.414 59.322 32.362 59.335 C 32.239 59.365 32.09 59.379 31.92 59.379 C 31.828 59.379 30.041 59.414 30.019 59.418 C 29.866 59.418 29.739 59.541 29.739 59.694 C 29.739 59.847 29.862 59.974 30.015 59.974 C 30.203 59.974 31.99 59.935 32.007 59.935 C 32.007 60.351 30.825 60.648 30.426 60.745 C 29.774 60.902 28.728 60.994 27.957 61.126 C 27.935 59.269 27.624 57.934 27.616 57.886 C 27.554 57.496 27.462 57.067 27.305 56.686 Z M 37.817 92.484 L 38.921 92.05 C 39.017 92.011 39.122 92.059 39.161 92.155 C 39.201 92.252 39.153 92.357 39.056 92.396 C 37.909 92.843 37.949 92.843 37.887 92.843 C 37.681 92.843 37.629 92.558 37.817 92.484 Z M 36.67 78.841 C 36.771 78.823 36.867 78.889 36.885 78.99 L 37.174 80.566 C 37.191 80.666 37.125 80.763 37.025 80.78 C 36.92 80.798 36.828 80.732 36.81 80.631 L 36.521 79.055 C 36.499 78.955 36.569 78.858 36.67 78.841 Z M 36.057 79.966 C 36.149 79.922 36.259 79.962 36.302 80.058 C 36.425 80.321 36.46 80.618 36.412 80.903 C 36.394 80.995 36.32 81.056 36.228 81.056 C 36.114 81.056 36.027 80.951 36.044 80.837 C 36.079 80.627 36.053 80.408 35.965 80.216 C 35.921 80.119 35.961 80.005 36.057 79.966 Z M 32.594 71.249 C 32.695 71.231 32.791 71.297 32.813 71.398 C 33.658 75.899 36.381 90.553 37.209 94.97 C 37.231 95.084 37.143 95.189 37.025 95.189 C 36.937 95.189 36.858 95.128 36.841 95.036 C 35.996 90.535 33.273 75.881 32.445 71.463 C 32.428 71.367 32.493 71.266 32.594 71.249 Z M 31.867 86.621 C 31.867 86.521 31.959 86.437 32.055 86.437 C 32.156 86.437 32.239 86.525 32.239 86.626 L 32.235 87.011 C 32.235 87.112 32.152 87.195 32.051 87.195 L 32.047 87.195 C 31.946 87.195 31.863 87.107 31.863 87.007 L 31.867 86.621 Z M 31.215 85.531 C 31.224 85.43 31.315 85.356 31.416 85.365 C 31.517 85.373 31.591 85.465 31.583 85.566 L 31.447 87.02 C 31.438 87.116 31.355 87.186 31.263 87.186 C 31.153 87.186 31.066 87.09 31.079 86.985 L 31.215 85.531 Z M 19.384 96.516 C 19.371 96.608 19.292 96.674 19.2 96.674 C 19.086 96.674 18.999 96.573 19.016 96.459 L 19.27 94.896 C 19.288 94.796 19.384 94.726 19.485 94.743 C 19.586 94.761 19.656 94.857 19.638 94.958 L 19.384 96.516 Z M 20.076 96.302 C 20.063 96.394 19.984 96.464 19.892 96.464 C 19.778 96.464 19.695 96.363 19.708 96.254 L 19.813 95.452 C 19.826 95.352 19.918 95.277 20.023 95.29 C 20.124 95.304 20.198 95.396 20.185 95.496 L 20.076 96.302 Z M 20.549 88.784 C 20.649 88.425 20.614 88.049 20.413 87.663 C 20.365 87.571 20.308 87.466 20.282 87.344 C 20.216 87.037 20.352 86.766 20.544 86.521 C 20.466 86.424 20.431 86.293 20.461 86.175 C 20.544 85.864 20.921 85.768 20.947 85.627 C 20.969 85.527 20.772 85.365 20.671 85.181 C 20.553 84.962 20.549 84.677 20.663 84.406 C 20.755 84.183 20.908 83.999 21.043 83.837 C 21.109 83.758 21.227 83.749 21.306 83.815 C 21.385 83.881 21.394 83.999 21.328 84.078 C 21.201 84.226 21.074 84.384 21.004 84.555 C 20.934 84.721 20.93 84.888 20.995 85.01 C 21.092 85.19 21.372 85.387 21.306 85.706 C 21.241 86.043 20.851 86.127 20.816 86.271 L 20.816 86.275 C 20.987 86.258 21.087 86.459 20.973 86.586 C 20.461 87.156 20.632 87.291 20.776 87.585 C 20.978 87.987 21.022 88.465 20.899 88.894 C 20.877 88.977 20.803 89.029 20.719 89.029 C 20.606 89.021 20.518 88.903 20.549 88.784 Z M 20.934 99.354 C 20.816 99.354 20.728 99.249 20.75 99.135 C 21.849 93.355 23.994 76.227 25.093 70.438 C 25.111 70.338 25.207 70.272 25.312 70.29 C 25.413 70.307 25.479 70.408 25.461 70.509 C 24.362 76.288 22.217 93.417 21.118 99.205 C 21.1 99.292 21.022 99.354 20.934 99.354 Z M 25.019 102.607 C 24.402 102.256 23.705 102.191 23.023 102.182 C 23.018 102.024 23.014 101.876 23.009 101.731 C 23.347 101.696 23.671 101.661 23.99 101.63 C 26.009 93.714 27.681 90.374 28.96 82.466 C 29.205 80.075 29.218 77.667 29.008 75.272 C 28.999 75.172 29.073 75.08 29.174 75.071 C 29.279 75.062 29.367 75.136 29.376 75.242 C 29.564 77.383 29.568 79.537 29.397 81.678 C 30.391 89.423 30.934 93.692 33.465 101.507 C 33.596 101.498 33.745 101.489 33.907 101.476 C 33.947 102.562 33.859 104.108 33.876 105.237 L 26.333 105.237 C 26.241 104.283 25.663 102.969 25.019 102.606 L 25.019 102.607 Z" style="fill: rgb(246, 247, 251);"/>
  <path d="M 23.334 35.001 C 23.439 35.657 24.345 36.301 24.98 37.216 C 25.142 37.448 25.225 37.86 25.221 38.433 C 25.221 38.49 25.243 38.543 25.273 38.587 C 25.256 39.322 25.251 39.979 25.199 40.789 C 25.19 40.942 25.304 41.073 25.457 41.087 C 25.615 41.095 25.742 40.973 25.755 40.828 C 25.856 39.265 25.786 38.074 25.926 37.247 C 25.956 37.059 25.987 36.791 25.873 36.608 C 25.716 36.305 25.44 36.275 25.216 36.148 C 25.164 36.091 25.116 36.03 25.076 35.96 C 24.984 35.793 24.958 35.46 25.033 35.294 C 25.05 35.255 25.068 35.237 25.072 35.237 C 25.173 35.211 25.352 35.281 25.479 35.329 C 26.197 35.587 26.941 35.561 27.673 35.285 C 28.277 35.106 28.951 34.681 29.332 34.182 C 29.542 33.981 29.744 33.757 29.945 33.512 C 30.006 33.481 30.072 33.464 30.133 33.455 C 30.378 33.823 30.624 34.16 30.707 34.58 C 30.895 35.53 30.869 36.529 30.632 37.466 C 30.427 38.28 30.094 38.849 29.63 39.151 C 29.148 39.471 28.399 39.432 28.089 38.941 C 28.005 38.81 27.835 38.775 27.703 38.858 C 27.572 38.941 27.537 39.112 27.62 39.243 C 27.975 39.795 28.653 40.001 29.284 39.878 C 29.332 40.242 29.345 40.075 29.398 40.535 C 29.415 40.688 29.551 40.798 29.704 40.78 C 29.858 40.763 29.967 40.627 29.949 40.474 C 29.888 39.918 29.879 40.167 29.822 39.685 C 31.315 38.862 31.587 36.17 31.254 34.471 C 31.21 34.248 31.132 34.051 31.04 33.867 C 31.219 33.924 31.429 33.924 31.683 33.779 C 32.187 33.495 32.314 32.75 31.928 32.317 C 31.836 32.212 31.727 32.133 31.631 32.067 C 31.35 31.87 31.302 31.826 31.442 31.327 C 31.499 31.117 31.569 30.881 31.534 30.631 C 31.469 30.11 30.939 29.716 30.422 29.804 C 30.291 29.825 30.168 29.874 30.063 29.917 C 29.735 30.049 29.713 30.044 29.494 29.747 C 29.376 29.585 29.231 29.388 28.986 29.3 C 28.693 29.195 28.421 29.304 28.202 29.392 C 27.857 29.532 27.826 29.519 27.576 29.383 C 27.454 29.318 27.314 29.239 27.143 29.213 C 26.779 29.16 26.407 29.361 26.118 29.773 C 26.07 29.843 26.026 29.913 25.978 29.983 C 25.698 30.43 25.624 30.478 25.155 30.605 C 25.05 30.635 24.936 30.662 24.827 30.706 C 24.1 30.977 23.583 31.704 23.574 32.483 C 23.57 32.925 23.719 33.333 23.653 33.687 C 23.588 34.042 23.25 34.48 23.334 35.001 Z M 29.709 30.938 C 29.779 30.863 29.897 30.859 29.971 30.924 C 30.343 31.266 30.567 31.765 30.571 32.269 C 30.571 32.369 30.488 32.457 30.387 32.457 C 30.287 32.457 30.203 32.374 30.203 32.273 C 30.199 31.87 30.019 31.472 29.722 31.2 C 29.643 31.13 29.639 31.012 29.709 30.938 Z M 28.894 30.552 C 28.894 30.452 28.977 30.368 29.078 30.368 C 29.179 30.368 29.262 30.452 29.262 30.552 L 29.262 30.583 C 29.262 30.684 29.179 30.767 29.078 30.767 C 28.977 30.767 28.894 30.684 28.894 30.583 L 28.894 30.552 Z" style="fill: rgb(246, 247, 251);"/>
  <path d="M 81.439 37.706 L 83.396 37.706 C 83.549 37.706 83.676 37.584 83.676 37.426 L 83.676 33.324 L 85.27 33.324 C 85.375 33.324 85.471 33.262 85.52 33.17 C 85.568 33.074 85.555 32.96 85.493 32.877 L 82.844 29.405 C 82.735 29.261 82.525 29.261 82.411 29.392 L 79.425 32.864 C 79.355 32.947 79.337 33.061 79.381 33.162 C 79.425 33.262 79.526 33.324 79.635 33.324 L 81.159 33.324 L 81.159 37.431 C 81.159 37.579 81.286 37.706 81.439 37.706 Z" style="fill: rgb(246, 247, 251);"/>
  <path d="M 78.536 36.533 C 78.383 36.533 78.256 36.656 78.256 36.813 L 78.256 38.994 C 78.256 39.147 78.383 39.274 78.536 39.274 L 86.351 39.274 C 86.505 39.274 86.627 39.151 86.632 38.998 L 86.645 36.537 C 86.645 36.384 86.522 36.257 86.369 36.257 C 86.216 36.257 86.093 36.38 86.089 36.533 L 86.076 38.713 L 78.816 38.713 L 78.816 36.813 C 78.816 36.656 78.694 36.533 78.536 36.533 Z" style="fill: rgb(246, 247, 251);"/>
  <path d="M 82.091 71.298 L 53.142 70.124 C 52.643 70.102 52.24 69.629 52.24 69.065 L 52.24 64.31 C 52.24 64.156 52.113 64.029 51.96 64.029 C 51.806 64.029 51.679 64.152 51.679 64.31 L 51.679 69.065 C 51.679 69.923 52.323 70.645 53.115 70.68 L 82.065 71.854 C 82.214 71.862 82.35 71.744 82.354 71.586 C 82.367 71.438 82.245 71.306 82.091 71.298 Z" style="fill: rgb(246, 247, 251);"/>
  <path d="M 87.726 52.926 L 87.726 42.006 C 87.726 41.931 87.695 41.857 87.643 41.809 C 87.485 41.651 88.133 41.748 76.216 41.975 C 76.062 41.98 75.94 42.107 75.944 42.26 C 75.948 42.413 76.08 42.54 76.229 42.531 L 87.17 42.29 L 87.17 52.641 L 62.551 52.098 L 62.551 42.829 L 75.147 42.553 C 75.3 42.549 75.423 42.422 75.418 42.269 C 75.414 42.115 75.282 41.993 75.134 41.997 L 62.266 42.282 C 62.113 42.286 61.995 42.409 61.995 42.562 L 61.995 52.378 C 61.995 52.532 62.117 52.654 62.266 52.658 L 87.442 53.21 C 87.591 53.21 87.726 53.088 87.726 52.926 Z" style="fill: rgb(246, 247, 251);"/>
  <path d="M 53.802 26.774 C 53.815 27.268 54.24 27.662 54.748 27.645 C 55.256 27.632 55.654 27.22 55.641 26.721 C 55.628 26.226 55.203 25.832 54.695 25.85 C 54.187 25.863 53.789 26.279 53.802 26.774 Z" style="fill: rgb(246, 247, 251);"/>
  <path d="M 57.288 26.59 C 57.301 27.085 57.726 27.479 58.234 27.461 C 58.741 27.448 59.14 27.036 59.127 26.537 C 59.114 26.043 58.689 25.648 58.181 25.666 C 57.673 25.679 57.27 26.091 57.288 26.59 Z" style="fill: rgb(246, 247, 251);"/>
  <path d="M 61.005 26.305 C 61.018 26.8 61.442 27.194 61.95 27.176 C 62.458 27.163 62.857 26.752 62.844 26.253 C 62.83 25.758 62.406 25.364 61.898 25.381 C 61.39 25.394 60.991 25.81 61.005 26.305 Z" style="fill: rgb(246, 247, 251);"/>
  <path d="M 74.569 39.804 C 74.722 39.804 74.849 39.677 74.849 39.523 L 74.753 32.063 C 74.753 31.988 74.722 31.918 74.666 31.866 C 74.613 31.813 74.539 31.787 74.464 31.791 L 64.976 32.159 C 64.827 32.163 64.709 32.286 64.709 32.439 L 64.709 39.532 C 64.709 39.685 64.836 39.812 64.989 39.812 L 74.569 39.804 Z M 74.28 38.762 C 72.962 37.943 71.592 37.032 70.055 35.951 L 74.201 32.881 L 74.28 38.762 Z M 74.004 39.248 L 65.607 39.248 L 69.587 36.305 C 71.198 37.439 72.625 38.389 74.004 39.248 Z M 69.578 35.614 C 68.374 34.755 67.06 33.792 65.594 32.689 L 73.974 32.365 L 69.578 35.614 Z M 69.105 35.964 L 65.261 38.81 L 65.261 33.135 C 66.671 34.199 67.94 35.132 69.105 35.964 Z" style="fill: rgb(246, 247, 251);"/>
  <path d="M 80.243 62.26 C 81.075 61.888 82.025 61.914 82.861 62.032 C 83.168 62.615 83.461 63.136 83.676 63.499 C 83.855 63.806 84.293 63.823 84.499 63.53 C 85.3 62.361 87.161 59.506 87.209 58.236 C 87.27 56.621 86.009 55.263 84.394 55.206 C 82.791 55.145 81.421 56.397 81.364 58.022 C 81.338 58.788 81.929 60.185 82.559 61.437 C 81.74 61.354 80.843 61.384 80.024 61.752 C 78.916 62.247 77.98 63.578 78.4 64.856 C 78.654 65.627 79.332 66.183 79.42 66.848 C 79.477 67.299 79.236 67.816 78.803 68.162 C 78.439 68.451 77.953 68.652 77.275 68.784 C 76.184 68.998 75.055 68.985 73.973 68.757 C 73.789 68.298 73.29 68.013 72.817 68.057 C 72.765 68.035 72.708 68.031 72.651 68.044 C 71.745 68.254 71.373 69.554 72.318 70.132 C 72.581 70.29 73.102 70.299 73.185 70.277 C 73.623 70.167 73.951 69.778 74.03 69.344 C 75.138 69.554 76.276 69.554 77.384 69.335 C 78.155 69.182 78.72 68.95 79.153 68.6 C 79.74 68.127 80.055 67.431 79.972 66.778 C 79.862 65.929 79.153 65.364 78.93 64.681 C 78.61 63.731 79.354 62.663 80.243 62.26 Z M 84.328 56.936 C 84.941 56.958 85.423 57.474 85.401 58.087 C 85.379 58.7 84.862 59.182 84.249 59.16 C 83.636 59.138 83.155 58.622 83.177 58.009 C 83.198 57.391 83.711 56.914 84.328 56.936 Z" style="fill: rgb(246, 247, 251);"/>
  <path d="M 66.223 60.084 L 72.086 60.119 C 72.309 60.119 72.493 59.936 72.498 59.704 L 72.554 55.592 C 72.559 55.36 72.379 55.176 72.152 55.181 L 66.289 55.264 C 66.074 55.268 65.899 55.452 65.899 55.675 L 65.873 57.668 C 64.13 57.672 62.108 57.681 60.991 57.681 L 61.017 55.942 C 61.022 55.723 60.86 55.544 60.654 55.548 L 55.334 55.623 C 55.142 55.627 54.98 55.802 54.98 56.017 L 54.927 59.83 C 54.923 60.045 55.08 60.22 55.273 60.22 L 60.593 60.259 C 60.794 60.259 60.965 60.084 60.965 59.865 L 60.987 58.245 L 65.869 58.232 L 65.847 59.682 C 65.838 59.9 66.009 60.084 66.223 60.084 Z" style="fill: rgb(246, 247, 251);"/>
  <path d="M 63.255 58.753 C 63.102 58.753 62.979 58.875 62.975 59.029 L 62.944 63.836 L 61.473 63.801 C 61.268 63.797 61.101 63.972 61.097 64.191 L 61.04 68.109 C 61.035 68.328 61.202 68.517 61.403 68.525 L 65.243 68.692 C 65.453 68.701 65.628 68.525 65.633 68.302 L 65.69 64.305 C 65.694 64.081 65.523 63.893 65.313 63.889 L 63.5 63.849 L 63.531 59.033 C 63.536 58.88 63.413 58.753 63.255 58.753 Z" style="fill: rgb(246, 247, 251);"/>
  <path d="M 69.14 47.199 L 70.9 45.062 C 70.996 44.944 70.979 44.769 70.86 44.668 C 70.212 44.134 69.389 43.841 68.549 43.841 C 66.543 43.841 64.915 45.47 64.915 47.475 C 64.915 49.48 66.543 51.109 68.549 51.109 C 70.554 51.109 72.183 49.48 72.183 47.475 C 72.183 47.322 72.056 47.195 71.903 47.195 L 69.14 47.199 Z M 68.549 50.557 C 66.85 50.557 65.471 49.178 65.471 47.479 C 65.471 45.006 68.251 43.552 70.283 44.935 L 68.334 47.3 C 68.185 47.484 68.317 47.755 68.549 47.755 L 71.614 47.755 C 71.474 49.323 70.151 50.557 68.549 50.557 Z" style="fill: rgb(246, 247, 251);"/>
  <path d="M 75.891 44.572 C 75.58 44.572 75.322 44.773 75.234 45.053 C 75.133 45.014 75.247 45.04 72.244 45.132 C 72.095 45.137 72.143 45.167 70.816 46.109 C 70.694 46.2 70.663 46.371 70.755 46.498 C 70.847 46.621 71.018 46.651 71.145 46.56 L 72.349 45.688 C 75.256 45.579 75.151 45.623 75.265 45.561 C 75.374 45.798 75.615 45.964 75.891 45.964 C 76.276 45.964 76.583 45.653 76.583 45.272 C 76.583 44.883 76.276 44.572 75.891 44.572 Z" style="fill: rgb(246, 247, 251);"/>
  <path d="M 73.242 48.043 C 73.242 48.196 73.369 48.323 73.522 48.323 L 81.592 48.323 C 81.745 48.323 81.872 48.201 81.872 48.043 C 81.872 47.89 81.745 47.763 81.592 47.763 L 73.522 47.763 C 73.365 47.763 73.242 47.89 73.242 48.043 Z" style="fill: rgb(246, 247, 251);"/>
  <path d="M 74.004 49.992 C 73.851 49.992 73.724 50.115 73.724 50.272 C 73.724 50.426 73.851 50.553 74.004 50.553 L 79.67 50.553 C 79.823 50.553 79.95 50.43 79.95 50.272 C 79.95 50.119 79.823 49.992 79.67 49.992 L 74.004 49.992 Z" style="fill: rgb(246, 247, 251);"/>
  <path d="M 77.778 44.361 L 85.62 44.361 L 85.62 45.569 L 77.778 45.569 L 77.778 44.361 Z" style="fill: rgb(246, 247, 251);"/>
  <path d="M 12.86 39.843 L 13.395 38.591 C 13.832 38.551 14.156 38.49 14.656 38.411 C 14.677 38.437 15.404 39.462 15.387 39.44 L 15.4 39.462 C 15.483 39.58 15.658 39.62 15.789 39.528 C 15.93 39.462 16.547 39.256 17.291 38.722 C 17.449 38.643 17.515 38.442 17.405 38.297 C 17.261 37.803 17.081 37.317 16.871 36.848 C 17.212 36.598 17.475 36.349 17.668 36.086 C 18.171 36.222 18.587 36.305 19.056 36.358 C 19.165 36.371 19.266 36.318 19.318 36.235 C 19.38 36.196 19.423 36.13 19.437 36.064 C 19.564 35.443 19.647 34.847 19.809 34.19 C 19.813 34.177 19.813 34.16 19.813 34.147 C 19.879 34.011 19.831 33.849 19.695 33.779 C 19.292 33.564 18.776 33.437 18.333 33.319 L 18.281 32.395 C 18.955 31.935 19.27 31.502 19.397 31.362 C 19.546 31.292 19.599 31.117 19.529 30.981 C 19.073 30.097 18.443 29.357 18.338 29.282 C 18.263 29.208 18.149 29.177 18.044 29.217 C 17.571 29.396 17.116 29.628 16.687 29.895 C 16.398 29.554 16.057 29.252 15.68 29.006 L 15.921 27.649 C 15.952 27.474 15.811 27.303 15.614 27.325 L 13.924 27.001 C 13.802 26.979 13.64 27.041 13.587 27.194 L 13.176 28.446 L 11.888 28.849 L 11.105 27.408 C 11.008 27.233 10.759 27.211 10.636 27.378 C 10.063 27.671 9.507 28.065 8.959 28.332 C 8.802 28.407 8.767 28.608 8.832 28.731 L 9.581 30.153 L 8.951 31.112 C 8.469 31.156 7.979 31.117 7.515 30.999 C 7.357 30.876 7.134 30.95 7.077 31.13 L 6.499 32.912 C 6.464 33.017 6.499 33.131 6.573 33.201 C 6.665 33.336 6.687 33.275 8.04 33.752 C 8.132 34.142 8.246 34.541 8.338 34.926 L 7.134 35.793 C 6.91 35.837 6.845 36.095 6.98 36.266 C 7.274 36.848 7.655 37.378 8.123 37.837 C 8.184 37.899 8.268 37.921 8.346 37.912 C 8.403 37.925 8.465 37.916 8.522 37.89 C 8.994 37.658 9.467 37.408 9.923 37.146 C 10.19 37.395 10.47 37.658 10.737 37.907 L 10.544 39.326 C 10.522 39.479 10.632 39.619 10.785 39.641 L 10.79 39.641 C 11.565 39.878 11.871 40.009 12.537 40.11 C 12.699 40.136 12.856 40.022 12.861 39.843 L 12.86 39.843 Z M 9.165 31.655 C 9.279 31.642 9.371 31.559 9.397 31.458 C 10.133 30.311 10.176 30.342 10.176 30.189 C 10.198 30.027 10.141 30.053 9.454 28.704 C 9.905 28.459 10.338 28.17 10.768 27.938 L 11.459 29.203 C 11.468 29.392 11.652 29.506 11.818 29.453 C 13.425 28.932 13.434 28.993 13.535 28.862 C 13.605 28.831 13.666 28.774 13.692 28.696 L 14.056 27.592 L 15.33 27.837 L 15.133 28.945 C 15.023 29.085 15.067 29.278 15.207 29.361 C 15.662 29.628 16.074 29.987 16.394 30.408 C 16.455 30.491 16.556 30.526 16.652 30.513 C 16.713 30.517 16.779 30.504 16.831 30.469 C 17.221 30.21 17.641 29.992 18.075 29.812 C 18.403 30.197 18.692 30.613 18.937 31.056 C 18.64 31.423 18.289 31.739 17.895 31.997 C 17.821 32.045 17.782 32.119 17.773 32.203 C 17.694 32.334 17.747 32.356 17.799 33.538 C 17.821 33.91 18.399 33.831 19.253 34.186 C 19.117 34.751 19.034 35.281 18.938 35.784 C 18.565 35.732 18.211 35.657 17.79 35.543 C 17.659 35.394 17.431 35.43 17.339 35.592 C 17.164 35.907 16.84 36.218 16.359 36.537 C 16.21 36.634 16.188 36.852 16.332 36.979 C 16.538 37.426 16.713 37.89 16.853 38.359 C 16.503 38.599 16.127 38.796 15.737 38.958 L 15.019 37.947 C 14.945 37.838 14.804 37.803 14.686 37.851 C 14.104 37.938 13.767 38.008 13.307 38.048 C 13.171 38.008 13.027 38.07 12.97 38.205 L 12.409 39.528 C 11.989 39.449 11.709 39.344 11.153 39.173 L 11.31 38.004 C 11.38 37.908 11.376 37.781 11.306 37.684 C 11.28 37.632 11.24 37.588 11.188 37.562 C 10.855 37.251 10.505 36.918 10.172 36.612 C 10.084 36.533 9.957 36.511 9.831 36.585 C 9.375 36.852 8.902 37.102 8.425 37.338 C 8.092 36.993 7.812 36.607 7.58 36.183 L 8.867 35.254 C 8.999 35.162 9.029 34.97 8.907 34.838 C 8.793 34.366 8.692 34.024 8.587 33.586 C 8.6 33.459 8.526 33.332 8.399 33.293 L 7.12 32.864 L 7.536 31.585 C 8.062 31.69 8.622 31.721 9.165 31.655 Z" style="fill: rgb(246, 247, 251);"/>
  <path d="M 12.011 36.393 C 13.298 36.971 14.936 36.577 15.824 35.495 C 16.853 34.243 16.849 32.312 15.675 31.244 C 14.808 30.451 14.095 30.193 13.035 30.285 C 11.634 30.403 10.395 31.546 10.163 32.943 C 9.931 34.331 10.723 35.815 12.011 36.393 Z" style="fill: rgb(246, 247, 251);"/>
  <path d="M 37.699 21.077 C 38.841 21.331 39.266 21.283 47.37 21.353 C 48.535 21.366 49.752 21.362 50.838 20.942 C 52.235 20.403 53.216 19.155 53.303 17.868 L 58.894 17.868 C 63.172 21.309 65.006 22.811 65.816 23.464 L 53.115 23.993 C 52.322 24.028 51.679 24.751 51.679 25.605 C 51.688 32.234 51.666 31.857 51.696 31.949 L 45.352 32.181 C 45.203 32.185 45.085 32.308 45.085 32.461 L 45.085 40.618 C 45.085 40.771 45.208 40.894 45.361 40.898 L 51.679 40.942 L 51.679 62.9 C 51.679 63.053 51.806 63.18 51.959 63.18 C 52.112 63.18 52.239 63.057 52.239 62.9 L 52.239 40.947 C 52.257 40.947 60.646 41.003 60.628 41.003 C 60.781 41.003 60.908 40.881 60.908 40.723 L 60.878 31.914 C 60.878 31.765 60.76 31.634 60.589 31.638 L 52.235 31.94 C 52.252 31.87 52.239 32.032 52.244 29.265 C 52.34 29.296 50.575 29.353 89.657 27.606 C 89.81 27.597 89.928 27.47 89.924 27.317 C 89.915 27.163 89.793 27.045 89.635 27.05 C 50.733 28.801 52.327 28.709 52.249 28.74 L 52.249 25.618 C 52.249 25.057 52.656 24.584 53.151 24.563 L 75.494 23.626 C 75.647 23.621 75.765 23.49 75.761 23.337 C 75.756 23.183 75.625 23.061 75.472 23.07 L 66.676 23.437 L 59.18 17.382 C 59.062 17.29 59.495 17.321 53.295 17.325 C 53.112 15.964 51.921 14.865 50.515 14.606 C 50.83 13.49 50.45 12.294 49.46 11.34 C 48.453 10.368 46.794 9.93 45.331 10.254 C 44.022 10.543 43.028 11.41 42.564 12.653 C 41.596 12.356 40.497 12.413 39.574 12.82 C 38.571 13.258 37.761 14.094 37.463 14.987 C 34.052 16.086 33.654 20.175 37.7 21.077 L 37.699 21.077 Z M 52.121 36.287 L 56.77 36.287 C 56.871 36.287 56.954 36.371 56.954 36.471 C 56.954 36.572 56.871 36.655 56.77 36.655 L 52.121 36.655 C 52.02 36.655 51.937 36.572 51.937 36.471 C 51.932 36.371 52.016 36.287 52.121 36.287 Z M 50.741 35.381 L 49.914 36.384 C 49.866 36.441 49.905 36.428 50.26 37.702 C 50.277 37.763 50.216 37.816 50.159 37.794 L 48.951 37.316 C 48.881 37.29 48.903 37.325 47.804 38.052 C 47.751 38.087 47.681 38.048 47.685 37.986 C 47.751 36.668 47.795 36.673 47.734 36.625 L 46.709 35.823 C 46.661 35.784 46.674 35.705 46.735 35.692 L 47.992 35.364 C 48.066 35.346 48.023 35.337 48.487 34.094 C 48.509 34.033 48.587 34.024 48.622 34.081 L 49.323 35.175 C 49.362 35.237 49.354 35.197 50.685 35.254 C 50.746 35.259 50.781 35.333 50.742 35.381 L 50.741 35.381 Z M 58.859 38.569 C 58.859 38.669 58.776 38.753 58.675 38.753 L 51.608 38.753 C 51.508 38.753 51.425 38.669 51.425 38.569 C 51.425 38.468 51.508 38.385 51.608 38.385 L 58.675 38.385 C 58.776 38.385 58.859 38.468 58.859 38.569 Z M 58.412 34.444 C 58.513 34.444 58.596 34.527 58.596 34.628 C 58.596 34.729 58.513 34.812 58.412 34.812 L 52.313 34.812 C 52.213 34.812 52.129 34.729 52.129 34.628 C 52.129 34.527 52.213 34.444 52.313 34.444 L 58.412 34.444 Z M 49.734 19.659 C 49.699 19.685 49.66 19.698 49.621 19.698 C 49.441 19.698 49.367 19.471 49.511 19.366 C 50.085 18.928 50.422 18.232 50.444 17.588 C 50.448 17.487 50.531 17.409 50.641 17.413 C 50.741 17.417 50.82 17.505 50.816 17.606 C 50.812 17.698 50.803 17.785 50.79 17.877 C 50.685 18.573 50.299 19.226 49.734 19.659 Z M 45.908 11.607 C 46.779 11.695 47.606 12.22 48.058 12.973 C 48.11 13.061 48.084 13.175 47.996 13.232 C 47.891 13.289 47.786 13.249 47.738 13.166 C 47.344 12.514 46.63 12.058 45.868 11.979 C 45.768 11.971 45.693 11.879 45.702 11.778 C 45.715 11.673 45.803 11.598 45.908 11.607 Z M 45.461 15.171 C 46.127 15.832 46.048 16.944 45.29 17.496 L 45.312 18.831 C 45.325 19.514 44.498 19.878 43.999 19.401 C 43.85 19.256 43.767 19.064 43.762 18.853 L 43.745 17.614 C 43.259 17.36 42.935 16.848 42.93 16.283 C 42.9 14.935 44.507 14.23 45.461 15.171 Z" style="fill: rgb(246, 247, 251);"/>
  <path d="M 91.421 84.436 L 91.421 78.744 C 91.421 78.591 91.294 78.464 91.141 78.464 L 87.166 78.464 L 87.253 72.059 L 89.666 72.155 C 89.976 72.164 90.296 72.072 90.458 71.967 C 90.484 71.954 90.506 71.936 90.532 71.919 C 91.592 71.796 92.424 70.671 92.849 69.537 C 93.317 68.289 93.295 66.892 93.265 65.539 C 93.225 63.766 93.413 62.015 93.374 60.237 L 93.378 31.485 C 93.378 29.361 93.295 29.072 93.273 27.86 C 93.247 26.647 93.124 25.399 92.577 24.344 C 92.091 23.407 91.202 22.662 90.244 22.605 C 89.705 22.413 90.09 22.54 77.656 23.004 C 77.503 23.008 77.385 23.14 77.389 23.293 C 77.394 23.446 77.529 23.569 77.678 23.56 L 89.684 23.074 C 90.235 23.052 90.721 23.494 90.721 24.12 C 90.717 74.017 90.774 70.57 90.599 71.074 C 90.424 71.411 90.078 71.626 89.684 71.613 L 84.609 71.407 C 84.456 71.398 84.325 71.521 84.32 71.674 C 84.316 71.827 84.434 71.959 84.587 71.963 L 86.698 72.046 L 86.61 78.474 L 82.91 78.469 C 82.757 78.469 82.63 78.592 82.63 78.75 L 82.63 84.441 C 82.63 84.595 82.757 84.722 82.91 84.722 L 91.142 84.722 C 91.295 84.717 91.422 84.595 91.422 84.437 L 91.421 84.436 Z M 83.799 81.954 C 83.685 81.897 83.659 81.744 83.75 81.652 L 85.313 80.15 C 85.388 80.08 85.506 80.08 85.576 80.154 C 85.646 80.229 85.646 80.347 85.572 80.417 L 84.201 81.735 C 84.771 82.024 85.068 82.208 85.69 82.519 C 85.865 82.606 85.804 82.869 85.607 82.869 C 85.581 82.873 84.639 82.365 83.798 81.954 L 83.799 81.954 Z M 85.738 84.279 C 85.642 84.239 85.598 84.13 85.638 84.038 L 87.695 79.117 C 87.735 79.02 87.844 78.976 87.941 79.016 C 88.037 79.055 88.081 79.165 88.041 79.257 L 85.983 84.178 C 85.94 84.274 85.835 84.318 85.738 84.279 Z M 89.705 82.116 C 88.869 82.514 88.015 83.013 87.888 83.013 C 87.691 83.013 87.63 82.746 87.809 82.659 C 88.422 82.365 88.755 82.168 89.311 81.897 L 87.958 80.561 C 87.884 80.491 87.884 80.373 87.958 80.299 C 88.033 80.224 88.146 80.224 88.221 80.299 L 89.762 81.822 C 89.845 81.906 89.819 82.059 89.705 82.116 Z" style="fill: rgb(246, 247, 251);"/>
  <path d="M 94.77 80.697 C 94.622 80.662 94.473 80.758 94.438 80.907 C 93.645 84.454 91.509 87.72 88.575 89.861 C 88.452 89.953 88.422 90.128 88.514 90.251 C 88.606 90.378 88.781 90.399 88.903 90.312 C 91.946 88.092 94.162 84.708 94.981 81.03 C 95.016 80.881 94.924 80.732 94.77 80.697 Z" style="fill: rgb(246, 247, 251);"/>
  <path d="M 94.451 86.381 C 94.298 86.381 94.175 86.503 94.171 86.657 C 94.166 87.366 93.68 88.049 93.011 88.281 C 92.866 88.334 92.787 88.491 92.84 88.636 C 92.892 88.785 93.05 88.859 93.194 88.806 C 94.079 88.496 94.722 87.594 94.727 86.657 C 94.731 86.508 94.604 86.381 94.451 86.381 Z" style="fill: rgb(246, 247, 251);"/>
  <path d="M 90.094 18.284 C 89.959 18.21 89.792 18.258 89.718 18.394 C 89.643 18.529 89.691 18.696 89.827 18.77 C 93.032 20.548 95.234 23.915 95.585 27.562 C 95.598 27.715 95.738 27.829 95.887 27.812 C 96.04 27.798 96.154 27.663 96.136 27.51 C 95.773 23.683 93.457 20.15 90.094 18.284 Z" style="fill: rgb(246, 247, 251);"/>
  <path d="M 96.566 22.141 C 96.238 21.257 95.73 20.42 95.091 19.724 C 94.986 19.61 94.81 19.602 94.697 19.707 C 94.583 19.812 94.574 19.987 94.679 20.101 C 95.27 20.744 95.739 21.515 96.045 22.334 C 96.098 22.478 96.26 22.553 96.404 22.5 C 96.549 22.448 96.619 22.286 96.566 22.141 Z" style="fill: rgb(246, 247, 251);"/>
  <path d="M 7.086 26.502 C 6.95 26.428 6.784 26.476 6.709 26.612 C 4.971 29.769 3.894 33.337 3.601 36.932 C 3.587 37.085 3.701 37.221 3.855 37.234 C 4.008 37.247 4.143 37.133 4.157 36.98 C 4.446 33.464 5.501 29.974 7.2 26.883 C 7.27 26.748 7.217 26.577 7.086 26.502 Z" style="fill: rgb(246, 247, 251);"/>
  <path d="M 3.697 28.945 C 3.552 28.888 3.39 28.958 3.338 29.102 C 2.821 30.416 2.563 31.799 2.563 33.209 C 2.563 33.363 2.69 33.49 2.843 33.49 C 2.996 33.49 3.123 33.363 3.123 33.209 C 3.123 31.887 3.377 30.534 3.859 29.304 C 3.911 29.164 3.841 29.002 3.697 28.945 Z" style="fill: rgb(246, 247, 251);"/>
</svg>