<?xml version="1.0" encoding="utf-8"?>
<svg xmlns="http://www.w3.org/2000/svg" viewBox="0 0 500 500">
  <path d="M 471.827 281.049 L 453.691 280.12 C 453.045 278.331 452.31 276.578 451.499 274.849 L 463.671 261.371 C 466.479 258.257 466.357 253.491 463.39 250.525 L 445.86 233.001 C 445.346 232.483 444.727 232.168 444.121 231.83 L 444.121 86.321 C 444.121 76.187 435.88 67.947 425.752 67.947 L 53.947 67.947 C 43.813 67.947 35.573 76.187 35.573 86.321 L 35.573 341.774 C 35.573 351.907 43.813 360.148 53.947 360.148 L 204.912 360.148 L 201.859 392.99 C 201.726 394.91 199.627 411.76 167.727 411.76 C 163.377 411.76 159.855 415.288 159.855 419.636 C 159.855 423.981 163.377 427.508 167.727 427.508 L 311.973 427.508 C 316.317 427.508 319.844 423.981 319.844 419.636 C 319.844 415.288 316.317 411.76 311.973 411.76 C 280.074 411.76 277.973 394.91 277.817 392.653 L 274.788 360.148 L 334.841 360.148 L 344.306 369.611 C 347.272 372.578 352.038 372.703 355.146 369.89 L 368.631 357.721 C 370.357 358.536 372.112 359.27 373.901 359.916 L 374.824 378.036 C 375.039 382.225 378.494 385.51 382.688 385.51 L 407.477 385.51 C 411.672 385.51 415.126 382.225 415.342 378.041 L 416.275 359.916 C 418.062 359.27 419.819 358.536 421.54 357.726 L 435.015 369.89 C 438.128 372.703 442.895 372.582 445.854 369.611 L 463.388 352.084 C 466.346 349.124 466.474 344.353 463.665 341.245 L 451.502 327.76 C 452.31 326.038 453.045 324.281 453.691 322.495 L 471.822 321.561 C 476.005 321.345 479.291 317.891 479.291 313.697 L 479.291 288.913 C 479.297 284.718 476.011 281.264 471.827 281.049 Z M 51.321 86.321 C 51.321 84.87 52.495 83.694 53.947 83.694 L 425.752 83.694 C 427.193 83.694 428.375 84.87 428.375 86.321 L 428.375 238.72 L 421.536 244.894 C 419.819 244.085 418.062 243.356 416.275 242.705 L 415.342 224.574 C 415.126 220.39 411.672 217.105 407.477 217.105 L 382.688 217.105 C 378.494 217.105 375.039 220.384 374.824 224.568 L 373.885 242.705 C 372.101 243.351 370.353 244.079 368.631 244.889 L 355.152 232.72 C 352.038 229.912 347.277 230.033 344.311 233.001 L 326.781 250.525 C 323.818 253.491 323.695 258.257 326.496 261.371 L 338.67 274.861 C 337.861 276.583 337.124 278.334 336.485 280.115 L 318.344 281.049 C 314.162 281.264 310.875 284.718 310.875 288.913 L 310.875 297.495 L 51.321 297.495 L 51.321 86.321 Z M 209.921 411.76 C 217.098 403.111 217.568 394.125 217.562 394.125 L 220.734 360.148 L 258.985 360.148 L 262.121 393.651 C 262.126 393.823 262.584 403.006 269.827 411.76 L 209.921 411.76 Z M 326.507 341.239 C 325.666 342.175 325.174 343.266 324.859 344.4 L 53.947 344.4 C 52.495 344.4 51.321 343.219 51.321 341.774 L 51.321 313.237 L 310.88 313.237 L 310.88 313.692 C 310.88 317.886 314.162 321.341 318.349 321.555 L 336.485 322.495 C 337.13 324.275 337.861 326.032 338.67 327.755 L 326.507 341.239 Z M 463.549 306.218 L 447.409 307.047 C 443.976 307.226 441.047 309.616 440.191 312.947 C 439.114 317.115 437.435 321.152 435.2 324.952 C 433.451 327.914 433.827 331.672 436.139 334.227 L 446.973 346.238 L 440.024 353.187 L 428.014 342.348 C 425.459 340.034 421.693 339.67 418.722 341.414 C 414.954 343.65 410.927 345.323 406.743 346.394 C 403.404 347.249 401.018 350.179 400.837 353.618 L 400.009 369.758 L 390.183 369.758 L 389.36 353.622 C 389.186 350.179 386.794 347.249 383.455 346.394 C 379.276 345.323 375.243 343.65 371.466 341.414 C 368.498 339.648 364.734 340.028 362.178 342.348 L 350.158 353.187 L 343.213 346.243 L 354.048 334.227 C 356.354 331.677 356.735 327.919 354.987 324.952 C 352.757 321.163 351.084 317.129 350.013 312.957 C 349.157 309.619 346.227 307.232 342.79 307.052 L 326.638 306.218 L 326.638 296.393 L 342.79 295.564 C 346.227 295.384 349.157 292.996 350.013 289.658 C 351.079 285.501 352.751 281.463 354.993 277.663 C 356.735 274.701 356.359 270.949 354.054 268.394 L 343.213 256.377 L 350.163 249.429 L 362.178 260.267 C 364.734 262.583 368.498 262.962 371.466 261.201 C 375.225 258.982 379.25 257.303 383.455 256.216 C 386.783 255.355 389.164 252.43 389.344 248.997 L 390.177 232.853 L 400.009 232.853 L 400.837 248.993 C 401.018 252.425 403.399 255.349 406.727 256.211 C 410.931 257.297 414.97 258.977 418.725 261.196 C 421.684 262.951 425.447 262.572 428.014 260.262 L 438.364 250.918 C 439.146 250.699 439.892 250.388 440.559 249.951 L 446.979 256.37 L 436.134 268.377 C 433.827 270.93 433.446 274.69 435.2 277.663 C 437.435 281.441 439.109 285.48 440.18 289.658 C 441.036 292.996 443.965 295.389 447.403 295.564 L 463.555 296.387 L 463.555 306.218 L 463.549 306.218 Z M 395.091 269.943 C 377.799 269.943 363.734 284.013 363.734 301.305 C 363.734 318.597 377.799 332.667 395.091 332.667 C 412.383 332.667 426.448 318.597 426.448 301.305 C 426.448 284.013 412.383 269.943 395.091 269.943 Z M 395.091 316.919 C 386.481 316.919 379.481 309.921 379.481 301.305 C 379.481 292.689 386.481 285.69 395.091 285.69 C 403.699 285.69 410.7 292.689 410.7 301.305 C 410.7 309.921 403.694 316.919 395.091 316.919 Z M 167.345 128.885 C 164.176 125.903 159.198 126.044 156.213 129.206 L 98.231 190.618 C 95.371 193.652 95.371 198.393 98.231 201.43 L 156.213 262.862 C 157.76 264.505 159.844 265.333 161.938 265.333 C 163.874 265.333 165.818 264.621 167.339 263.186 C 170.5 260.205 170.647 255.218 167.66 252.054 L 114.788 196.026 L 167.665 140.018 C 170.652 136.852 170.509 131.872 167.345 128.885 Z M 239.699 128.065 C 235.645 126.517 231.084 128.538 229.526 132.596 L 182.993 253.843 C 181.433 257.9 183.462 262.459 187.524 264.016 C 188.452 264.368 189.402 264.539 190.341 264.539 C 193.508 264.539 196.493 262.619 197.697 259.485 L 244.227 138.243 C 245.783 134.181 243.756 129.626 239.699 128.065 Z M 328.978 190.645 L 270.998 129.212 C 268.016 126.039 263.031 125.903 259.87 128.885 C 256.711 131.866 256.564 136.852 259.543 140.013 L 312.425 196.048 L 259.543 252.054 C 256.564 255.212 256.7 260.195 259.864 263.186 C 261.388 264.621 263.329 265.333 265.273 265.333 C 267.359 265.333 269.45 264.505 270.998 262.862 L 328.978 201.452 C 331.844 198.416 331.844 193.68 328.978 190.645 Z" style="stroke-width: 1; paint-order: fill; fill: rgb(246, 247, 251);"/>
</svg>