<svg width="256" height="256" viewBox="0 0 256 256" xmlns="http://www.w3.org/2000/svg">
  <polygon points="50,240 10,230 45,155 75,175" fill="#001a4d" />
  <polygon points="45,155 80,110 115,130 75,175" fill="#000b2b" />
  
  <polygon points="75,175 115,130 90,30 55,40" fill="#051c5e" />
  <polygon points="90,30 135,10 160,80 115,130" fill="#0a2472" />
  
  <polygon points="160,80 135,10 185,50" fill="#031544" />
  <polygon points="160,80 185,50 205,125 150,150" fill="#143385" />
  <polygon points="115,130 160,80 150,150" fill="#0c297a" />
  
  <polygon points="115,130 150,150 230,220 180,245 90,190" fill="#1b4098" />
  <polygon points="75,175 115,130 90,190" fill="#082163" />
</svg>